<svg xmlns="http://www.w3.org/2000/svg" width="128" height="128" viewBox="0 0 128 128" version="1.1"><path d="M 58.500 26 L 53.575 31 58.075 31 C 62.152 31, 63.038 31.470, 67.500 36 C 70.209 38.750, 72.893 41, 73.466 41 C 74.038 41, 75.781 39.650, 77.338 38 C 78.895 36.350, 80.611 35, 81.150 35 C 81.689 35, 74.820 42.182, 65.886 50.960 C 54.944 61.710, 48.689 67.129, 46.725 67.560 C 44.023 68.154, 43.836 68.487, 44.181 72.100 C 44.386 74.245, 44.230 76, 43.835 76 C 43.440 76, 41.184 73.525, 38.822 70.500 C 36.459 67.475, 34.209 65, 33.822 65 C 33.435 65, 32.652 66.912, 32.083 69.250 L 31.048 73.500 31.569 69 C 32.001 65.263, 32.958 63.618, 37.210 59.301 C 41.833 54.608, 42.193 53.928, 40.915 52.301 C 39.598 50.625, 39.639 50.600, 41.500 51.943 C 42.600 52.737, 45.525 55.309, 48 57.658 L 52.500 61.930 57.812 56.809 L 63.123 51.687 57.846 46.344 L 52.568 41 60.784 41 C 65.303 41, 69 40.641, 69 40.203 C 69 39.765, 67.313 37.766, 65.250 35.761 L 61.500 32.116 53 32.622 C 44.814 33.109, 44.242 32.999, 37.500 29.627 C 24.537 23.142, 23.871 23.558, 29.481 34.630 C 31.396 38.408, 32.971 42.962, 32.981 44.750 C 33 47.955, 34.411 49.183, 35.280 46.750 C 35.525 46.063, 36.092 45.842, 36.540 46.260 C 36.988 46.679, 36.686 47.579, 35.870 48.260 C 35.054 48.942, 31.288 52.776, 27.501 56.779 L 20.616 64.058 27.029 70.529 C 30.556 74.088, 34.164 77, 35.047 77 C 36.757 77, 41 80.984, 41 82.589 C 41 84.473, 30.145 95, 28.203 95 C 26.182 95, 25.039 97.442, 25.014 101.817 C 25.002 103.764, 25.360 104.022, 27.250 103.434 C 33.051 101.627, 34.001 100.974, 34.030 98.775 C 34.050 97.274, 35.946 94.884, 39.603 91.750 C 42.652 89.138, 45.480 87, 45.886 87 C 46.293 87, 47.919 88.350, 49.500 90 C 51.081 91.650, 51.910 93, 51.342 93 C 50.774 93, 49.495 92.100, 48.500 91 C 47.505 89.900, 46.197 89.014, 45.595 89.032 C 44.534 89.062, 39 93.491, 39 94.310 C 39 95.088, 61.025 96.102, 62.197 95.378 C 62.971 94.900, 61.157 92.601, 56.940 88.718 C 53.398 85.456, 51.400 83.118, 52.500 83.522 C 58.089 85.575, 58.743 85.364, 60.791 80.849 C 62.757 76.514, 93 44.594, 93 46.854 C 93 47.446, 91.650 49.468, 90 51.347 C 87.194 54.543, 87 55.288, 87 62.882 C 87 67.347, 87.412 71, 87.916 71 C 88.420 71, 90.223 69.244, 91.923 67.097 C 94.774 63.497, 95.021 62.568, 95.101 55.152 C 95.148 50.730, 94.883 46.620, 94.512 46.020 C 94.141 45.419, 95.190 42.807, 96.843 40.214 C 100.947 33.779, 104.228 25, 102.530 25 C 100.084 25, 93.201 27.849, 88.864 30.655 C 81.684 35.303, 78.868 34.784, 70.997 27.359 C 67.290 23.861, 64.070 21, 63.841 21 C 63.612 21, 61.209 23.250, 58.500 26 M 38 49 C 38 49.733, 38.300 50.033, 38.667 49.667 C 39.033 49.300, 39.033 48.700, 38.667 48.333 C 38.300 47.967, 38 48.267, 38 49 M 35.405 51.155 C 34.962 51.870, 35.130 52.038, 35.845 51.595 C 36.998 50.883, 37.393 50, 36.559 50 C 36.316 50, 35.797 50.520, 35.405 51.155 M 97.104 61.006 C 97.004 64.963, 97.396 68.772, 97.974 69.468 C 98.729 70.378, 98.599 71.088, 97.512 71.990 C 96.210 73.071, 96 72.742, 96 69.622 C 96 67.630, 95.736 66, 95.414 66 C 95.092 66, 92.436 68.529, 89.513 71.620 C 86.123 75.205, 83.754 76.966, 82.971 76.482 C 82.054 75.915, 82.155 75.493, 83.372 74.812 C 86.572 73.021, 85.312 69.550, 80.637 67.279 L 76.274 65.159 71.087 70.412 C 65.953 75.610, 65.916 75.694, 67.399 78.582 C 68.223 80.187, 69.104 82.216, 69.356 83.090 C 70.097 85.661, 75.991 84.377, 76.030 81.637 C 76.058 79.715, 76.163 79.675, 77.073 81.237 C 78.408 83.529, 76.670 86.794, 73.721 87.534 C 72.500 87.840, 69.057 87.869, 66.070 87.597 C 63.084 87.326, 60.310 87.309, 59.904 87.559 C 58.483 88.438, 65.289 94.107, 68.377 94.616 C 70.095 94.900, 72.513 95.336, 73.750 95.585 C 75.064 95.849, 76 95.549, 76 94.863 C 76 92.574, 81.106 87, 83.203 87 C 86.009 87, 96.439 97.414, 95.661 99.440 C 95.243 100.530, 96.178 101.273, 99.048 102.133 C 101.229 102.786, 103.261 103.073, 103.563 102.770 C 103.866 102.467, 103.729 100.734, 103.259 98.919 C 102.628 96.484, 101.665 95.421, 99.591 94.866 C 96.909 94.149, 91.710 89.235, 88.224 84.122 C 86.663 81.833, 86.723 81.637, 89.850 78.843 C 91.636 77.247, 93.447 76.158, 93.875 76.423 C 94.303 76.687, 97.535 73.997, 101.056 70.443 L 107.459 63.983 102.372 58.896 L 97.286 53.810 97.104 61.006 M 36.973 61.529 L 34.597 64.058 37.798 67.260 L 41 70.462 41 64.731 C 41 61.579, 40.628 59, 40.174 59 C 39.720 59, 38.279 60.138, 36.973 61.529 M 23 64 C 23 64.733, 23.300 65.033, 23.667 64.667 C 24.033 64.300, 24.033 63.700, 23.667 63.333 C 23.300 62.967, 23 63.267, 23 64 M 104 64 C 104 64.733, 104.300 65.033, 104.667 64.667 C 105.033 64.300, 105.033 63.700, 104.667 63.333 C 104.300 62.967, 104 63.267, 104 64 M 100.564 67.707 C 100.022 69.132, 100.136 69.247, 101.124 68.267 C 101.808 67.588, 102.115 66.781, 101.807 66.474 C 101.499 66.166, 100.940 66.721, 100.564 67.707 M 33 83.500 C 33 86.525, 33.365 89, 33.812 89 C 34.779 89, 39 83.464, 39 82.195 C 39 80.962, 35.590 78, 34.171 78 C 33.418 78, 33 79.964, 33 83.500 M 90.973 80.529 L 88.597 83.058 91.798 86.260 L 95 89.462 95 83.731 C 95 80.579, 94.628 78, 94.174 78 C 93.720 78, 92.279 79.138, 90.973 80.529 M 80.165 91.324 C 78.964 92.602, 78.286 93.952, 78.658 94.324 C 79.513 95.180, 90 95.219, 90 94.366 C 90 93.383, 84.631 89.003, 83.424 89.001 C 82.833 89.001, 81.366 90.046, 80.165 91.324 M 67.559 91.532 C 66.491 92.339, 66.068 93, 66.618 93 C 67.168 93, 68.491 92.339, 69.559 91.532 C 70.626 90.724, 71.050 90.064, 70.500 90.064 C 69.950 90.064, 68.626 90.724, 67.559 91.532 M 58.762 102.238 L 64 107.476 68.992 102.484 L 73.984 97.493 66.363 97.200 C 58.983 96.917, 58.760 96.976, 59.308 99.068 L 59.873 101.229 57.622 99.114 C 52.830 94.613, 53.803 97.280, 58.762 102.238 M 68.029 99.961 C 67.220 100.473, 66.818 101.152, 67.136 101.470 C 67.455 101.788, 68.284 101.362, 68.980 100.524 C 70.423 98.786, 70.146 98.622, 68.029 99.961 M 62.500 104 C 62.840 104.550, 63.568 105, 64.118 105 C 64.668 105, 64.840 104.550, 64.500 104 C 64.160 103.450, 63.432 103, 62.882 103 C 62.332 103, 62.160 103.450, 62.500 104" stroke="none" fill="#e4d4ec" fill-rule="evenodd"/>
    
</svg>