<svg xmlns="http://www.w3.org/2000/svg" width="128" height="128" viewBox="0 0 128 128" version="1.1"><path d="M 54.774 33.553 C 50.600 37.157, 45.554 42.200, 43.559 44.760 C 39.552 49.903, 39.510 51.378, 43.142 59.587 L 45.078 63.966 53.159 56.983 C 57.603 53.142, 62.047 50, 63.033 50 C 64.810 50, 71 57.377, 71 59.494 C 71 60.099, 69.236 62.317, 67.079 64.422 C 63.347 68.067, 62.651 71, 65.518 71 C 66.236 71, 69.302 68.579, 72.332 65.621 L 77.841 60.242 73.534 53.871 C 71.165 50.367, 67.842 46.194, 66.150 44.598 L 63.072 41.695 57.447 46.598 C 49.751 53.304, 48 54.507, 48 53.089 C 48 50.816, 52.926 42.273, 57.601 36.438 C 60.217 33.172, 62.492 30.323, 62.655 30.107 C 63.618 28.834, 77.079 46.055, 82.502 55.500 C 84.081 58.250, 86.451 61.349, 87.768 62.386 C 89.291 63.586, 89.983 64.955, 89.671 66.149 C 89.353 67.364, 89.914 68.419, 91.261 69.140 C 93.398 70.283, 94.523 69.449, 97.059 64.842 C 98.079 62.989, 94.108 56.561, 86.085 47.081 C 80.729 40.752, 65.304 27, 63.561 27 C 62.902 27, 58.948 29.949, 54.774 33.553 M 33.188 57.588 C 31.434 59.715, 30 62.429, 30 63.618 C 30 68.070, 47.324 88.029, 59.545 97.657 L 63.553 100.814 67.026 97.969 C 69.825 95.677, 70.255 94.877, 69.241 93.853 C 68.224 92.826, 67.684 93.006, 66.434 94.791 C 65.583 96.006, 64.350 96.985, 63.693 96.967 C 62.451 96.932, 53.920 86.248, 48.181 77.537 C 44.239 71.556, 39.196 61.868, 37.552 57.121 L 36.375 53.721 33.188 57.588 M 55.250 60.614 C 52.362 63.126, 50 65.851, 50 66.671 C 50 69.869, 63.027 86.454, 64.343 84.932 C 64.549 84.694, 64.977 82.813, 65.296 80.750 C 65.795 77.512, 65.611 77, 63.943 77 C 62.061 77, 56 69.844, 56 67.622 C 56 67.029, 57.856 64.847, 60.124 62.774 C 63.566 59.628, 64.042 58.756, 63.002 57.502 C 62.316 56.676, 61.473 56.011, 61.128 56.024 C 60.782 56.038, 58.138 58.103, 55.250 60.614 M 76 64.941 C 76 65.459, 76.450 66.160, 77 66.500 C 78.661 67.527, 78.152 68.479, 74.923 70.386 C 70.489 73.006, 68.008 77.632, 68.004 83.289 C 68 87.482, 68.488 88.601, 71.928 92.289 C 75.607 96.232, 76.200 96.500, 81.256 96.500 C 94.871 96.500, 100.929 81.589, 90.969 72.591 C 88.783 70.616, 86.456 69, 85.797 69 C 84.869 69, 84.870 68.730, 85.800 67.800 C 88.431 65.169, 87.109 64, 81.500 64 C 78.475 64, 76 64.423, 76 64.941 M 77.500 72.945 C 69.186 76.348, 69.183 88.486, 77.494 92.430 C 81.897 94.520, 86.860 93.264, 90.006 89.265 C 93 85.459, 93.384 82.612, 91.452 78.541 C 88.856 73.070, 82.966 70.708, 77.500 72.945 M 81.750 75.571 C 81.338 75.990, 81 77.833, 81 79.667 C 81 82.810, 81.200 83, 84.500 83 C 86.425 83, 88 82.550, 88 82 C 88 81.450, 86.904 81, 85.563 81 C 83.573 81, 83.069 80.433, 82.813 77.904 C 82.641 76.202, 82.162 75.152, 81.750 75.571" stroke="none" fill="#ecdcf2" fill-rule="evenodd"/></svg>