<svg xmlns="http://www.w3.org/2000/svg" width="128" height="128" viewBox="0 0 128 128" version="1.1"><path d="M 61.961 23.601 C 61.392 25.098, 58.918 28.995, 56.463 32.261 C 54.009 35.526, 52 39.014, 52 40.010 C 52 41.007, 53.427 43.023, 55.171 44.491 L 58.343 47.159 60.421 42.881 C 61.565 40.528, 62.985 38.455, 63.578 38.275 C 65.218 37.778, 67.214 42.911, 67.543 48.473 C 67.705 51.208, 68.268 53.589, 68.795 53.765 C 69.321 53.940, 70.933 52.680, 72.376 50.965 C 74.408 48.550, 75 46.767, 75 43.060 C 75 38.886, 74.360 37.407, 70 31.500 C 67.250 27.775, 65 24.140, 65 23.422 C 65 20.825, 62.972 20.944, 61.961 23.601 M 52.092 31.089 C 50.768 31.619, 46.381 32.331, 42.342 32.673 C 38.304 33.014, 35 33.449, 35 33.640 C 35 33.831, 36.913 36.487, 39.250 39.543 C 42.591 43.911, 45.139 45.931, 51.165 48.993 C 55.381 51.135, 62.330 55.163, 66.609 57.944 C 70.888 60.725, 75.167 63, 76.118 63 C 79.621 63, 88 65.375, 88 66.368 C 88 66.932, 84.737 70.504, 80.750 74.307 L 73.500 81.221 78.780 83.192 C 84.968 85.501, 87.715 88.796, 86.048 91.910 C 84.794 94.253, 83.091 95.283, 76.909 97.436 C 69.160 100.134, 68.056 99.738, 57.776 90.568 C 47.573 81.465, 47.488 81.321, 42.407 64.500 C 40.911 59.550, 39.560 55.340, 39.404 55.144 C 39.248 54.948, 36.684 57.283, 33.706 60.333 C 28.824 65.333, 28.238 66.408, 27.735 71.274 C 27.084 77.582, 27.358 78.169, 32 80.414 L 35.500 82.106 32.750 79.601 C 29.316 76.473, 29.075 71.940, 32.189 69.039 C 33.392 67.918, 34.742 67, 35.189 67 C 35.635 67, 37.238 69.323, 38.750 72.162 C 40.420 75.297, 45.811 81.535, 52.473 88.042 C 62.539 97.874, 63.324 98.905, 61.973 100.533 C 60.577 102.215, 60.886 102.270, 67.883 101.580 C 83.177 100.073, 93.005 95.139, 91.629 89.658 C 90.921 86.837, 85.107 83.054, 80.274 82.270 C 74.911 81.399, 76.012 79.768, 87.250 71.934 C 90.412 69.729, 93 67.594, 93 67.190 C 93 66.785, 94.586 64.047, 96.523 61.104 C 99.794 56.138, 99.884 55.804, 97.773 56.445 C 92.468 58.057, 87.096 59.182, 81 59.956 C 74.609 60.769, 74.408 60.722, 69 57.141 C 59.508 50.857, 50.132 42.949, 47.910 39.354 C 46.734 37.451, 45.936 35.773, 46.136 35.623 C 46.336 35.474, 48.168 34.586, 50.208 33.649 C 52.247 32.713, 54.186 31.509, 54.517 30.973 C 55.219 29.837, 55.226 29.836, 52.092 31.089 M 75.154 50.802 C 71.127 54.912, 70.929 55.357, 72.452 56.869 C 73.973 58.378, 74.240 58.313, 76.027 56 C 77.917 53.553, 80.542 47.111, 79.850 46.616 C 79.657 46.478, 77.544 48.362, 75.154 50.802 M 48 50.768 C 48 51.804, 52.747 58.904, 55.510 62 C 56.737 63.375, 58.580 65.850, 59.606 67.500 L 61.472 70.500 57.486 67.282 C 55.294 65.512, 52.263 62.819, 50.750 61.297 C 49.237 59.775, 48 59.031, 48 59.643 C 48 61.484, 51.029 68.148, 53.556 71.868 C 54.860 73.787, 57.144 78.765, 58.630 82.929 C 60.116 87.093, 62.015 91.302, 62.850 92.282 C 64.250 93.926, 64.621 93.357, 67.622 84.952 C 69.411 79.940, 71.578 74.751, 72.438 73.420 C 73.297 72.089, 74.715 69.894, 75.588 68.541 C 77.120 66.169, 77.083 66.059, 74.523 65.416 C 72.439 64.893, 71.204 65.367, 68.767 67.625 L 65.664 70.500 67.823 66.897 C 69.906 63.420, 69.918 63.236, 68.162 61.647 C 65.925 59.622, 64.313 59.467, 65.944 61.433 C 66.878 62.558, 66.772 63.418, 65.452 65.433 C 64.527 66.845, 63.648 68, 63.500 68 C 63.352 68, 62.473 66.845, 61.548 65.433 C 60.235 63.429, 60.125 62.555, 61.046 61.445 C 61.972 60.328, 61.893 59.896, 60.676 59.429 C 59.740 59.070, 59.363 58.174, 59.722 57.167 C 60.050 56.250, 59.968 55.817, 59.539 56.204 C 59.110 56.591, 56.724 55.353, 54.236 53.454 C 49.761 50.037, 48 49.278, 48 50.768 M 62.015 72.917 C 62.024 73.237, 62.411 74.101, 62.877 74.835 C 63.529 75.864, 63.837 75.731, 64.224 74.251 C 64.537 73.054, 64.214 72.333, 63.363 72.333 C 62.613 72.333, 62.007 72.596, 62.015 72.917 M 37 87 C 33.135 90.865, 35.560 95.247, 43.372 98.511 C 49.081 100.897, 48.877 99.602, 43.043 96.427 C 37.217 93.256, 35.708 90.085, 38.536 86.960 C 40.865 84.387, 39.580 84.420, 37 87" stroke="none" fill="#ebd9f2" fill-rule="evenodd"/></svg>