<svg xmlns="http://www.w3.org/2000/svg" width="128" height="128" viewBox="0 0 128 128" version="1.1"><path d="M 72.050 34.559 C 72.017 40.620, 72.443 44.224, 73.339 45.449 C 74.549 47.104, 74.739 47.122, 75.308 45.640 C 75.654 44.738, 76.578 44, 77.362 44 C 80.273 44, 79.867 40.692, 76.037 33.201 L 72.100 25.500 72.050 34.559 M 89.250 34.805 C 86.999 35.028, 85.997 35.645, 85.992 36.813 C 85.980 39.190, 76.537 49, 74.261 49 C 72.414 49, 68 44.094, 68 42.040 C 68 40.328, 66.212 40.856, 64.012 43.218 C 62.079 45.293, 62.060 45.478, 63.723 46.100 C 64.700 46.465, 66.275 47.626, 67.222 48.680 C 68.880 50.525, 68.595 50.943, 59.496 60.004 C 53.038 66.435, 50.436 69.658, 51.274 70.191 C 51.948 70.619, 55.439 70.976, 59.031 70.985 L 65.563 71 71.484 65.016 L 77.405 59.032 79.703 61.190 C 80.966 62.377, 82 63.945, 82 64.674 C 82 66.534, 83.397 66.323, 85.345 64.171 C 87.302 62.009, 87.448 61, 85.805 61 C 84.016 61, 79 55.861, 79 54.029 C 79 51.707, 89.190 42, 91.627 42 C 93.365 42, 93.658 41.439, 93.477 38.465 C 93.223 34.276, 93.363 34.397, 89.250 34.805 M 83.700 50.633 C 83.352 50.981, 84.412 53.119, 86.056 55.383 C 92.166 63.796, 93.060 64.308, 89.331 57.257 C 85.548 50.104, 84.942 49.391, 83.700 50.633 M 75.260 66.250 C 74.719 66.938, 73.980 68.737, 73.619 70.250 L 72.962 73 53.731 73.183 C 43.154 73.283, 33.223 73.276, 31.661 73.167 C 30.100 73.058, 28.998 73.313, 29.212 73.734 C 33.631 82.419, 34.434 84.938, 34.286 89.652 L 34.124 94.805 37.812 93.792 C 43.418 92.253, 46.085 90.587, 50.958 85.580 C 55.172 81.252, 55.281 80.999, 52.958 80.985 C 51.606 80.977, 48.521 80.282, 46.103 79.440 C 41.757 77.926, 41.672 77.940, 38.882 80.613 C 35.959 83.414, 35.493 83.172, 34.798 78.500 C 34.461 76.240, 33.234 76.286, 51 77.888 C 57.325 78.459, 65.763 79.170, 69.750 79.470 L 77 80.014 77 72.507 C 77 68.378, 76.830 65, 76.622 65 C 76.415 65, 75.802 65.563, 75.260 66.250" stroke="none" fill="#e9d9f0" fill-rule="evenodd"/></svg>