<svg xmlns="http://www.w3.org/2000/svg" width="128" height="128" viewBox="0 0 128 128" version="1.1"><path d="M 73.500 25.589 C 69.650 28.656, 64.685 32.816, 62.467 34.833 C 54.097 42.444, 54.828 42.105, 49.106 41.020 C 42.786 39.822, 22.800 37.867, 22.271 38.395 C 22.064 38.603, 25.180 39.752, 29.197 40.948 C 39.654 44.061, 48 47.350, 48 48.356 C 48 48.833, 46.203 51.369, 44.007 53.992 C 36.880 62.505, 22.566 93.870, 24.431 96.888 C 25.796 99.097, 53.556 90.387, 67.406 83.404 C 78.329 77.897, 92.642 69.504, 99.497 64.585 C 102.904 62.140, 105.608 60.990, 107.997 60.968 C 111.259 60.939, 111.369 60.838, 109.601 59.499 C 107.756 58.103, 107.771 58.001, 110.101 55.922 L 112.500 53.783 109.785 55.391 C 106.169 57.534, 105.690 57.479, 97 53.929 C 92.875 52.243, 83.650 49.278, 76.500 47.340 C 69.350 45.401, 63.340 43.659, 63.144 43.469 C 62.609 42.947, 71.766 31.215, 77.363 25.250 C 80.073 22.362, 81.887 20.003, 81.395 20.006 C 80.903 20.009, 77.350 22.521, 73.500 25.589 M 56.619 55.250 C 55.844 57.038, 54.304 60.525, 53.195 63 C 52.086 65.475, 50.474 69.911, 49.612 72.857 L 48.044 78.214 51.650 77.538 C 60.731 75.834, 95.879 61.555, 92.500 60.942 C 91.950 60.843, 88.951 60.854, 85.835 60.968 C 82.464 61.091, 78.819 60.558, 76.835 59.652 C 66.419 54.896, 59.622 52, 58.875 52 C 58.409 52, 57.393 53.462, 56.619 55.250" stroke="none" fill="#e9dbf0" fill-rule="evenodd"/></svg>